<?xml version="1.0" encoding="utf-8"?>
<!-- Generator: Adobe Illustrator 23.1.0, SVG Export Plug-In . SVG Version: 6.00 Build 0)  -->
<svg version="1.1" xmlns="http://www.w3.org/2000/svg" xmlns:xlink="http://www.w3.org/1999/xlink" x="0px" y="0px"
	 viewBox="0 0 1103.22 210.04" style="enable-background:new 0 0 1103.22 210.04;" xml:space="preserve">
<style type="text/css">
	.st0{fill:#40A9D9;}
	.st1{fill:#FFFFFF;}
	.st2{fill:#F7931E;}
	.st3{fill:none;stroke:#40A9D9;stroke-width:5;stroke-miterlimit:10;}
	.st4{fill:#F2FFFF;}
	.st5{fill:none;stroke:#40A9D9;stroke-width:3;stroke-miterlimit:10;}
</style>
<g id="Warstwa_1">
	<circle class="st0" cx="115.39" cy="107.74" r="86.68"/>
	<path class="st1" d="M161.42,154.63H69.4c-6.6,0-12-5.4-12-12V72.9c0-6.6,5.4-12,12-12h92.03c6.6,0,12,5.4,12,12v69.73
		C173.42,149.23,168.02,154.63,161.42,154.63z"/>
	<path class="st2" d="M144.97,114.08h25.22c6.18,0,11.24-5.06,11.24-11.24v0c0-6.18-5.06-11.24-11.24-11.24h-25.22
		c-6.18,0-11.24,5.06-11.24,11.24v0C133.74,109.03,138.79,114.08,144.97,114.08z"/>
	<circle class="st1" cx="146.12" cy="102.85" r="7.57"/>
	<path class="st3" d="M138.55,130.96c-2.58,3.04-10.44,11.48-22.62,12.91c-15.89,1.87-32.66-8.97-40.34-27.26"/>
	<path class="st4" d="M89.71,84.08c4.89,1.83,9.78,3.67,14.68,5.5"/>
	<path class="st5" d="M83.07,91.28c3.2,0.11,7.57,0.59,12.49,2.16c4.52,1.44,8.11,3.35,10.68,4.99"/>
	<path class="st5" d="M81.01,100.42c3.94,0.01,8.26-0.16,12.89-0.61c4.05-0.39,7.81-0.95,11.26-1.59"/>
	<path class="st3" d="M71.98,96"/>
</g>
<g id="Warstwa_2">
	<g>
		<path class="st0" d="M325.21,149.89H306.6v-38.01h-34.87v38.01h-18.67V61.83h18.67v34.51h34.87V61.83h18.61V149.89z"/>
		<path class="st0" d="M388.76,149.89l-3.55-9.16h-0.48c-3.09,3.9-6.27,6.6-9.55,8.1c-3.27,1.51-7.54,2.26-12.8,2.26
			c-6.47,0-11.55-1.85-15.27-5.54c-3.71-3.69-5.57-8.95-5.57-15.78c0-7.15,2.5-12.42,7.5-15.81c5-3.39,12.54-5.27,22.62-5.63
			l11.69-0.36v-2.95c0-6.83-3.49-10.24-10.48-10.24c-5.38,0-11.71,1.63-18.97,4.88l-6.08-12.41c7.75-4.06,16.34-6.08,25.78-6.08
			c9.03,0,15.96,1.97,20.78,5.9c4.82,3.94,7.23,9.92,7.23,17.95v44.87H388.76z M383.33,118.69l-7.11,0.24
			c-5.34,0.16-9.32,1.13-11.93,2.89c-2.61,1.77-3.92,4.46-3.92,8.07c0,5.18,2.97,7.77,8.91,7.77c4.26,0,7.66-1.22,10.21-3.67
			c2.55-2.45,3.83-5.7,3.83-9.76V118.69z"/>
		<path class="st0" d="M457.48,151.1c-7.91,0-14.12-2.87-18.61-8.61h-0.96c0.64,5.62,0.96,8.88,0.96,9.76v27.29H420.5V82.55h14.94
			l2.59,8.73h0.84c4.3-6.67,10.66-10,19.09-10c7.95,0,14.17,3.07,18.67,9.22c4.5,6.14,6.75,14.68,6.75,25.6
			c0,7.19-1.05,13.43-3.16,18.73c-2.11,5.3-5.11,9.34-9,12.11C467.32,149.71,462.74,151.1,457.48,151.1z M452.06,95.98
			c-4.54,0-7.85,1.4-9.94,4.19c-2.09,2.79-3.17,7.4-3.25,13.82v1.99c0,7.23,1.07,12.41,3.22,15.54c2.15,3.13,5.55,4.7,10.21,4.7
			c8.23,0,12.35-6.79,12.35-20.36c0-6.63-1.01-11.6-3.04-14.91S456.4,95.98,452.06,95.98z"/>
		<path class="st0" d="M535.54,151.1c-7.91,0-14.12-2.87-18.61-8.61h-0.96c0.64,5.62,0.96,8.88,0.96,9.76v27.29h-18.37V82.55h14.94
			l2.59,8.73h0.84c4.3-6.67,10.66-10,19.09-10c7.95,0,14.17,3.07,18.67,9.22c4.5,6.14,6.75,14.68,6.75,25.6
			c0,7.19-1.05,13.43-3.16,18.73c-2.11,5.3-5.11,9.34-9,12.11C545.38,149.71,540.8,151.1,535.54,151.1z M530.12,95.98
			c-4.54,0-7.85,1.4-9.94,4.19c-2.09,2.79-3.17,7.4-3.25,13.82v1.99c0,7.23,1.07,12.41,3.22,15.54c2.15,3.13,5.55,4.7,10.21,4.7
			c8.23,0,12.35-6.79,12.35-20.36c0-6.63-1.01-11.6-3.04-14.91S534.46,95.98,530.12,95.98z"/>
		<path class="st0" d="M566.99,82.55h20.12l12.71,37.89c1.08,3.29,1.83,7.19,2.23,11.69h0.36c0.44-4.14,1.3-8.03,2.59-11.69
			l12.47-37.89h19.7l-28.49,75.95c-2.61,7.03-6.33,12.29-11.17,15.78s-10.49,5.24-16.96,5.24c-3.17,0-6.29-0.34-9.34-1.02v-14.58
			c2.21,0.52,4.62,0.78,7.23,0.78c3.25,0,6.09-0.99,8.52-2.98c2.43-1.99,4.33-4.99,5.69-9l1.08-3.31L566.99,82.55z"/>
		<path class="st0" d="M766.06,149.89h-21.26l-11.93-46.26c-0.44-1.65-1.2-5.05-2.26-10.21c-1.06-5.16-1.68-8.62-1.84-10.39
			c-0.24,2.17-0.84,5.65-1.81,10.45c-0.96,4.8-1.71,8.22-2.23,10.27l-11.87,46.14h-21.2L669.2,61.83h18.37l11.26,48.07
			c1.97,8.88,3.39,16.56,4.28,23.07c0.24-2.29,0.79-5.83,1.66-10.63c0.86-4.8,1.68-8.52,2.44-11.17l12.83-49.33h17.65l12.83,49.33
			c0.56,2.21,1.26,5.58,2.11,10.12c0.84,4.54,1.49,8.43,1.93,11.68c0.4-3.13,1.04-7.04,1.93-11.71c0.88-4.68,1.69-8.46,2.41-11.35
			l11.2-48.07h18.37L766.06,149.89z"/>
		<path class="st0" d="M840.87,149.89l-3.55-9.16h-0.48c-3.09,3.9-6.27,6.6-9.55,8.1c-3.27,1.51-7.54,2.26-12.8,2.26
			c-6.47,0-11.55-1.85-15.27-5.54c-3.71-3.69-5.57-8.95-5.57-15.78c0-7.15,2.5-12.42,7.5-15.81c5-3.39,12.54-5.27,22.62-5.63
			l11.69-0.36v-2.95c0-6.83-3.49-10.24-10.48-10.24c-5.38,0-11.71,1.63-18.97,4.88l-6.08-12.41c7.75-4.06,16.34-6.08,25.78-6.08
			c9.03,0,15.96,1.97,20.78,5.9c4.82,3.94,7.23,9.92,7.23,17.95v44.87H840.87z M835.45,118.69l-7.11,0.24
			c-5.34,0.16-9.32,1.13-11.93,2.89c-2.61,1.77-3.92,4.46-3.92,8.07c0,5.18,2.97,7.77,8.91,7.77c4.26,0,7.66-1.22,10.21-3.67
			c2.55-2.45,3.83-5.7,3.83-9.76V118.69z"/>
		<path class="st0" d="M890.98,149.89h-18.37V56.17h18.37V149.89z"/>
		<path class="st0" d="M928.63,149.89h-18.37V56.17h18.37V149.89z"/>
		<path class="st0" d="M978.38,151.1c-10.84,0-19.32-2.99-25.42-8.98c-6.1-5.98-9.16-14.46-9.16-25.42
			c0-11.28,2.82-20.01,8.46-26.17c5.64-6.16,13.44-9.25,23.4-9.25c9.52,0,16.92,2.71,22.23,8.13s7.95,12.91,7.95,22.47v8.91h-43.43
			c0.2,5.22,1.75,9.3,4.64,12.23c2.89,2.93,6.95,4.4,12.17,4.4c4.05,0,7.89-0.42,11.5-1.26c3.61-0.84,7.39-2.19,11.32-4.04v14.21
			c-3.21,1.61-6.65,2.8-10.3,3.58C988.1,150.71,983.64,151.1,978.38,151.1z M975.79,94.36c-3.9,0-6.95,1.23-9.16,3.7
			c-2.21,2.47-3.47,5.97-3.79,10.51h25.78c-0.08-4.54-1.27-8.04-3.55-10.51C982.78,95.59,979.68,94.36,975.79,94.36z"/>
		<path class="st0" d="M1049.15,136.46c3.21,0,7.07-0.7,11.57-2.11v13.67c-4.58,2.05-10.2,3.07-16.87,3.07
			c-7.35,0-12.7-1.86-16.05-5.57c-3.35-3.71-5.03-9.29-5.03-16.71V96.35h-8.79v-7.77l10.12-6.14l5.3-14.21h11.75v14.34H1060v13.79
			h-18.85v32.47c0,2.61,0.73,4.54,2.2,5.78C1044.81,135.84,1046.74,136.46,1049.15,136.46z"/>
	</g>
</g>
</svg>
