<?xml version="1.0" encoding="utf-8"?>
<!-- Generator: Adobe Illustrator 23.1.0, SVG Export Plug-In . SVG Version: 6.00 Build 0)  -->
<svg version="1.1" xmlns="http://www.w3.org/2000/svg" xmlns:xlink="http://www.w3.org/1999/xlink" x="0px" y="0px"
	 viewBox="0 0 1103.22 210.04" style="enable-background:new 0 0 1103.22 210.04;" xml:space="preserve">
<style type="text/css">
	.st0{fill:#40A9D9;}
	.st1{fill:#FFFFFF;}
	.st2{fill:#F7931E;}
	.st3{fill:none;stroke:#40A9D9;stroke-width:5;stroke-miterlimit:10;}
	.st4{fill:#F2FFFF;}
	.st5{fill:none;stroke:#40A9D9;stroke-width:3;stroke-miterlimit:10;}
</style>
<g id="Warstwa_1">
	<circle class="st0" cx="115.39" cy="107.74" r="86.68"/>
	<path class="st1" d="M161.42,154.63H69.4c-6.6,0-12-5.4-12-12V72.9c0-6.6,5.4-12,12-12h92.03c6.6,0,12,5.4,12,12v69.73
		C173.42,149.23,168.02,154.63,161.42,154.63z"/>
	<path class="st2" d="M144.97,114.08h25.22c6.18,0,11.24-5.06,11.24-11.24v0c0-6.18-5.06-11.24-11.24-11.24h-25.22
		c-6.18,0-11.24,5.06-11.24,11.24v0C133.74,109.03,138.79,114.08,144.97,114.08z"/>
	<circle class="st1" cx="146.12" cy="102.85" r="7.57"/>
	<path class="st3" d="M138.55,130.96c-2.58,3.04-10.44,11.48-22.62,12.91c-15.89,1.87-32.66-8.97-40.34-27.26"/>
	<path class="st4" d="M89.71,84.08c4.89,1.83,9.78,3.67,14.68,5.5"/>
	<path class="st5" d="M83.07,91.28c3.2,0.11,7.57,0.59,12.49,2.16c4.52,1.44,8.11,3.35,10.68,4.99"/>
	<path class="st5" d="M81.01,100.42c3.94,0.01,8.26-0.16,12.89-0.61c4.05-0.39,7.81-0.95,11.26-1.59"/>
	<path class="st3" d="M71.98,96"/>
</g>
<g id="Warstwa_2">
	<g>
		<path class="st0" d="M228.26,156.77v-94h25.62V99.3h34.16V62.77h25.68v94h-25.68V118.5h-34.16v38.27H228.26z"/>
		<path class="st0" d="M401.63,91.92v64.85h-21v-10.53c-3,4.49-6.37,7.79-10.11,9.89c-3.75,2.1-8.14,3.15-13.2,3.15
			c-8.65,0-15.56-3.16-20.74-9.47c-5.18-6.31-7.77-14.78-7.77-25.39c0-10.57,2.71-18.97,8.12-25.2c5.42-6.23,12.7-9.34,21.86-9.34
			c4.88,0,9.09,1.04,12.62,3.11c3.53,2.08,6.56,5.28,9.09,9.6V91.92H401.63z M381.53,124.28c0-5.05-1.35-9.05-4.04-12.01
			c-2.7-2.95-6.38-4.43-11.04-4.43c-4.67,0-8.34,1.47-11.01,4.4c-2.68,2.93-4.01,6.95-4.01,12.04c0,5.05,1.35,9.03,4.04,11.94
			c2.7,2.91,6.36,4.37,10.98,4.37c4.67,0,8.35-1.46,11.04-4.37C380.18,133.31,381.53,129.33,381.53,124.28z"/>
		<path class="st0" d="M419.03,185.41V91.92h21.06v10.92c2.91-4.37,6.19-7.62,9.82-9.76c3.64-2.14,7.68-3.21,12.14-3.21
			c9.12,0,16.37,3.11,21.77,9.34c5.39,6.23,8.09,14.67,8.09,25.33c0,10.36-2.69,18.74-8.06,25.14c-5.37,6.4-12.38,9.6-21.03,9.6
			c-5.48,0-9.94-1.01-13.39-3.02c-3.45-2.01-6.52-5.33-9.21-9.95c0.21,1.28,0.38,2.85,0.48,4.69c0.11,1.84,0.16,4.11,0.16,6.81
			v27.61H419.03z M439.32,124.54c0,5.05,1.32,9.03,3.95,11.94c2.63,2.91,6.26,4.37,10.88,4.37s8.27-1.46,10.95-4.37
			c2.67-2.91,4.01-6.89,4.01-11.94c0-5.05-1.33-9.03-3.98-11.94c-2.66-2.91-6.32-4.37-10.98-4.37c-4.62,0-8.25,1.46-10.88,4.37
			C440.63,115.51,439.32,119.49,439.32,124.54z"/>
		<path class="st0" d="M505.84,185.41V91.92h21.06v10.92c2.91-4.37,6.19-7.62,9.82-9.76c3.64-2.14,7.68-3.21,12.14-3.21
			c9.12,0,16.37,3.11,21.77,9.34c5.39,6.23,8.09,14.67,8.09,25.33c0,10.36-2.69,18.74-8.06,25.14c-5.37,6.4-12.38,9.6-21.03,9.6
			c-5.48,0-9.94-1.01-13.39-3.02c-3.45-2.01-6.52-5.33-9.21-9.95c0.21,1.28,0.38,2.85,0.48,4.69c0.11,1.84,0.16,4.11,0.16,6.81
			v27.61H505.84z M526.13,124.54c0,5.05,1.32,9.03,3.95,11.94c2.63,2.91,6.26,4.37,10.88,4.37s8.27-1.46,10.95-4.37
			c2.67-2.91,4.01-6.89,4.01-11.94c0-5.05-1.33-9.03-3.98-11.94c-2.66-2.91-6.32-4.37-10.98-4.37c-4.62,0-8.25,1.46-10.88,4.37
			C527.44,115.51,526.13,119.49,526.13,124.54z"/>
		<path class="st0" d="M588.99,185.41l18.24-38.53l-26.13-54.96h25.36l9.05,23.44c0.77,1.97,1.41,3.8,1.93,5.49
			c0.51,1.69,0.9,3.26,1.16,4.72c0.26-1.54,0.63-3.13,1.12-4.78c0.49-1.65,1.12-3.46,1.89-5.43l9.18-23.44h24.46l-40.77,93.49
			H588.99z"/>
		<path class="st0" d="M728.13,62.77l11.81,44.69c0.56,2.01,1.07,4.11,1.54,6.29c0.47,2.18,0.96,4.69,1.48,7.51
			c0.64-3.34,1.19-6.09,1.64-8.25c0.45-2.16,0.89-4.01,1.32-5.55l11.04-44.69h25.88l-26.58,94H732.5l-11.62-40.13
			c-0.43-1.41-1.13-4.17-2.12-8.28c-0.43-1.84-0.77-3.27-1.03-4.3c-0.21,0.9-0.51,2.16-0.9,3.79c-0.99,4.15-1.73,7.08-2.25,8.8
			l-11.43,40.13h-23.82l-26.52-94h25.88l10.79,44.95c0.51,2.31,1.02,4.62,1.51,6.94c0.49,2.31,0.95,4.69,1.38,7.13
			c0.39-1.8,0.8-3.68,1.25-5.65c0.45-1.97,1.12-4.77,2.02-8.41l11.82-44.95H728.13z"/>
		<path class="st0" d="M854.94,91.92v64.85h-21v-10.53c-3,4.49-6.37,7.79-10.11,9.89c-3.75,2.1-8.14,3.15-13.2,3.15
			c-8.65,0-15.56-3.16-20.74-9.47c-5.18-6.31-7.77-14.78-7.77-25.39c0-10.57,2.71-18.97,8.12-25.2c5.42-6.23,12.7-9.34,21.86-9.34
			c4.88,0,9.09,1.04,12.62,3.11c3.53,2.08,6.56,5.28,9.09,9.6V91.92H854.94z M834.85,124.28c0-5.05-1.35-9.05-4.04-12.01
			c-2.7-2.95-6.38-4.43-11.04-4.43c-4.67,0-8.34,1.47-11.01,4.4c-2.68,2.93-4.01,6.95-4.01,12.04c0,5.05,1.35,9.03,4.04,11.94
			c2.7,2.91,6.36,4.37,10.98,4.37c4.67,0,8.35-1.46,11.04-4.37C833.5,133.31,834.85,129.33,834.85,124.28z"/>
		<path class="st0" d="M872.86,156.77V57.25h22.92v99.52H872.86z"/>
		<path class="st0" d="M913.89,156.77V57.25h22.92v99.52H913.89z"/>
		<path class="st0" d="M1021.5,128.9h-49.31c0.04,5.01,1.33,8.87,3.85,11.59c2.53,2.72,6.1,4.08,10.72,4.08
			c3.47,0,6.39-0.65,8.76-1.96c2.38-1.31,4.18-3.24,5.43-5.81l17.21,6.93c-2.05,4.97-5.69,8.8-10.92,11.49s-11.62,4.04-19.2,4.04
			c-11.3,0-20.37-3.13-27.19-9.41c-6.83-6.27-10.24-14.54-10.24-24.82c0-10.1,3.41-18.49,10.24-25.17
			c6.83-6.68,15.46-10.02,25.91-10.02c10.74,0,19.22,3.38,25.43,10.15c6.21,6.76,9.31,16.03,9.31,27.8V128.9z M998.97,116
			c-0.43-3.68-1.83-6.64-4.21-8.86c-2.38-2.23-5.3-3.34-8.76-3.34c-3.72,0-6.69,1.02-8.89,3.05c-2.21,2.03-3.67,5.08-4.4,9.15
			H998.97z"/>
		<path class="st0" d="M1038.13,156.77V108.1h-9.7V91.92h9.7V72.59h22.54v19.33h9.7v16.18h-9.7v48.67H1038.13z"/>
	</g>
</g>
</svg>
