<?xml version="1.0" encoding="utf-8"?>
<!-- Generator: Adobe Illustrator 23.1.0, SVG Export Plug-In . SVG Version: 6.00 Build 0)  -->
<svg version="1.1" xmlns="http://www.w3.org/2000/svg" xmlns:xlink="http://www.w3.org/1999/xlink" x="0px" y="0px"
	 viewBox="0 0 202.24 210.04" style="enable-background:new 0 0 202.24 210.04;" xml:space="preserve">
<style type="text/css">
	.st0{fill:#40A9D9;}
	.st1{fill:#FFFFFF;}
	.st2{fill:#F7931E;}
	.st3{fill:none;stroke:#40A9D9;stroke-width:5;stroke-miterlimit:10;}
	.st4{fill:#F2FFFF;}
	.st5{fill:none;stroke:#40A9D9;stroke-width:3;stroke-miterlimit:10;}
</style>
<g id="Warstwa_1">
	<circle class="st0" cx="101.81" cy="107.74" r="86.68"/>
	<path class="st1" d="M147.84,154.63H55.81c-6.6,0-12-5.4-12-12V72.9c0-6.6,5.4-12,12-12h92.03c6.6,0,12,5.4,12,12v69.73
		C159.84,149.23,154.44,154.63,147.84,154.63z"/>
	<path class="st2" d="M131.39,114.08h25.22c6.18,0,11.24-5.06,11.24-11.24v0c0-6.18-5.06-11.24-11.24-11.24h-25.22
		c-6.18,0-11.24,5.06-11.24,11.24v0C120.15,109.03,125.21,114.08,131.39,114.08z"/>
	<circle class="st1" cx="132.54" cy="102.85" r="7.57"/>
	<path class="st3" d="M124.97,130.96c-2.58,3.04-10.44,11.48-22.62,12.91c-15.89,1.87-32.66-8.97-40.34-27.26"/>
	<path class="st4" d="M76.13,84.08c4.89,1.83,9.78,3.67,14.68,5.5"/>
	<path class="st5" d="M69.48,91.28c3.2,0.11,7.57,0.59,12.49,2.16c4.52,1.44,8.11,3.35,10.68,4.99"/>
	<path class="st5" d="M67.42,100.42c3.94,0.01,8.26-0.16,12.89-0.61c4.05-0.39,7.81-0.95,11.26-1.59"/>
	<path class="st3" d="M58.39,96"/>
</g>
<g id="Warstwa_2">
</g>
</svg>
